<?xml version="1.0" standalone="no"?>
<!DOCTYPE svg PUBLIC "-//W3C//DTD SVG 20010904//EN"
 "http://www.w3.org/TR/2001/REC-SVG-20010904/DTD/svg10.dtd">
<svg version="1.0" xmlns="http://www.w3.org/2000/svg"
 width="154.000000pt" height="142.000000pt" viewBox="0 0 154.000000 142.000000"
 preserveAspectRatio="xMidYMid meet">
<metadata>
Created by potrace 1.10, written by Peter Selinger 2001-2011
</metadata>
<g transform="translate(0.000000,142.000000) scale(0.100000,-0.100000)"
fill="#000000" stroke="none">
<path d="M650 1320 c-17 -14 -38 -19 -68 -18 -35 1 -48 -3 -75 -30 -21 -20
-43 -32 -60 -32 -27 0 -46 -15 -80 -64 -10 -14 -33 -32 -51 -40 -27 -11 -35
-21 -40 -51 -5 -25 -19 -48 -42 -68 -26 -23 -34 -39 -34 -64 0 -30 3 -33 30
-33 17 0 30 4 30 8 0 5 16 35 35 67 20 32 32 61 28 64 -11 8 -13 62 -2 55 5
-3 18 0 31 7 l21 12 -21 -28 c-38 -48 -24 -51 23 -5 24 24 42 47 39 52 -3 5
-12 4 -20 -3 -12 -10 -13 -9 -8 5 7 18 16 20 29 7 6 -6 30 3 64 24 198 125
472 105 637 -47 31 -29 48 -38 55 -31 8 8 7 13 0 17 -6 4 -11 4 -11 0 0 -4 -9
1 -20 11 -11 10 -17 22 -14 27 3 5 0 17 -8 26 -12 15 -11 16 5 3 10 -8 16 -19
14 -25 -3 -6 2 -17 9 -24 8 -7 14 -10 14 -7 0 3 9 1 21 -5 20 -11 20 -12 3
-25 -17 -12 -16 -15 11 -46 17 -19 41 -58 55 -87 21 -44 29 -52 52 -52 26 0
28 3 28 38 0 30 -6 42 -35 65 -21 17 -35 37 -35 50 0 31 -14 49 -52 66 -19 9
-42 32 -53 53 -16 30 -27 38 -59 44 -26 4 -50 17 -69 37 -24 26 -35 30 -73 28
-32 -1 -52 4 -74 20 -27 21 -32 21 -70 9 -33 -11 -48 -11 -74 -2 -44 16 -57
15 -86 -8z m76 -12 c5 -7 3 -8 -6 -3 -10 6 -12 4 -6 -11 4 -10 4 -15 0 -11 -4
4 -13 2 -21 -5 -11 -8 -17 -8 -26 2 -10 10 -8 12 7 6 17 -6 17 -5 5 11 -12 15
-12 16 3 10 10 -3 20 -2 23 3 8 13 12 12 21 -2z m164 -22 c0 -1 -9 -2 -20 -3
-13 -1 -18 2 -14 9 5 7 2 9 -7 6 -8 -3 -25 -8 -39 -12 -23 -7 -22 -6 5 12 27
17 32 17 53 4 12 -8 22 -15 22 -16z m87 -14 c19 2 28 -3 34 -19 9 -25 5 -26
-26 -13 -17 7 -17 9 -2 9 9 1 17 5 17 11 0 6 -9 6 -25 0 -21 -8 -30 -6 -48 11
l-22 21 23 -11 c13 -7 35 -11 49 -9z m245 -195 c-4 -15 -2 -18 8 -12 9 5 11 4
6 -4 -9 -14 -26 -5 -26 15 0 8 -5 12 -11 9 -6 -4 -5 2 2 14 15 24 29 9 21 -22z"/>
<path d="M633 1235 c-93 -25 -174 -74 -243 -145 -62 -64 -132 -170 -112 -170
6 0 24 25 41 55 106 188 320 291 530 255 151 -25 301 -131 365 -258 14 -29 31
-52 37 -52 18 0 -44 102 -99 161 -67 73 -133 115 -227 145 -88 28 -208 31
-292 9z"/>
<path d="M660 1199 c-114 -22 -261 -131 -318 -236 l-23 -43 445 0 c245 0 446
2 446 5 0 3 -15 29 -33 58 -111 172 -313 256 -517 216z m125 -19 c4 -6 11 -8
16 -4 17 10 59 12 53 2 -3 -5 6 -7 20 -4 15 3 24 1 21 -4 -10 -16 -77 -24 -97
-11 -10 6 -18 8 -18 3 0 -4 -20 -7 -45 -8 -45 0 -58 9 -30 20 8 3 15 0 16 -7
0 -8 2 -9 5 -1 3 7 15 10 27 7 18 -4 19 -3 7 6 -13 9 -13 11 2 11 9 0 20 -5
23 -10z m165 -41 c0 -8 6 -7 17 2 14 12 16 12 8 0 -6 -11 -4 -13 11 -8 18 7
18 7 0 -8 -13 -10 -23 -12 -30 -5 -21 21 -25 8 -28 -77 -3 -86 -3 -88 -28 -88
-25 0 -25 2 -28 88 l-3 87 31 0 c16 0 30 5 30 10 0 6 5 10 10 10 6 0 10 -5 10
-11z m-327 -96 c-2 -121 -23 -124 -23 -4 0 66 3 91 13 91 9 0 12 -23 10 -87z
m75 0 c-3 -86 -3 -86 -30 -90 l-28 -4 0 91 0 90 30 0 31 0 -3 -87z m80 -5 c2
-74 0 -88 -13 -88 -10 0 -16 11 -17 33 l-1 32 -4 -32 c-3 -20 -10 -33 -19 -33
-11 0 -14 16 -14 74 0 94 5 108 39 104 26 -3 26 -4 29 -90z m32 57 c0 -19 5
-35 10 -35 6 0 10 16 10 35 0 19 5 35 10 35 6 0 10 -37 10 -90 0 -53 -4 -90
-10 -90 -5 0 -10 18 -10 40 0 22 -4 40 -10 40 -5 0 -10 -18 -10 -40 0 -22 -4
-40 -10 -40 -6 0 -10 37 -10 90 0 53 4 90 10 90 6 0 10 -16 10 -35z m-260 1
c24 -5 26 -10 26 -59 -1 -45 -5 -57 -25 -72 -13 -10 -21 -13 -17 -7 4 7 1 12
-8 12 -21 0 -20 10 2 26 15 12 14 13 -11 14 -20 0 -30 6 -34 19 -5 19 -37 19
-49 0 -3 -5 1 -6 8 -4 8 3 25 -6 38 -20 13 -14 18 -25 11 -25 -9 0 -9 -3 1
-14 7 -8 18 -11 23 -8 6 3 7 1 2 -3 -9 -11 -145 -11 -154 0 -5 4 -2 5 6 0 11
-6 13 -3 8 14 -3 13 -3 21 -1 18 3 -3 25 16 49 42 34 35 47 43 54 32 5 -8 16
-11 29 -6 18 5 20 9 9 25 -7 13 -15 16 -21 10 -6 -6 -14 -10 -20 -10 -5 0 -1
6 9 14 11 8 24 12 30 11 5 -2 21 -6 35 -9z m470 -6 c0 -5 -4 -10 -10 -10 -21
0 -9 -16 21 -27 27 -11 30 -15 19 -28 -7 -8 -24 -15 -39 -15 -22 -1 -24 -2 -8
-11 9 -5 17 -14 17 -19 0 -14 -47 -13 -55 1 -11 17 -11 109 0 113 20 8 55 6
55 -4z m70 -47 c8 -13 21 -23 28 -23 8 0 12 -6 9 -14 -7 -19 21 -58 36 -50 7
4 9 3 4 -1 -4 -5 -38 -8 -75 -8 -70 1 -78 9 -46 44 8 8 14 21 14 28 0 7 4 10
9 6 5 -3 13 -1 16 5 4 6 3 9 -2 8 -4 -2 -9 2 -11 7 -2 6 -13 16 -25 23 -14 8
-15 11 -4 8 9 -3 17 0 18 7 0 7 3 6 7 -3 4 -8 14 -25 22 -37z"/>
<path d="M890 1045 c0 -30 5 -55 10 -55 6 0 10 25 10 55 0 30 -4 55 -10 55 -5
0 -10 -25 -10 -55z"/>
<path d="M660 1039 c0 -37 4 -58 10 -54 6 3 10 31 10 61 0 30 -4 54 -10 54 -6
0 -10 -27 -10 -61z"/>
<path d="M32 708 c3 -136 5 -153 21 -156 15 -3 17 5 17 62 0 57 2 66 18 66 31
0 42 22 42 86 0 87 -4 94 -56 94 l-45 0 3 -152z m60 62 c-2 -22 -8 -40 -12
-40 -4 0 -10 18 -12 40 -3 31 0 40 12 40 12 0 15 -9 12 -40z"/>
<path d="M145 838 c-3 -13 -4 -79 -3 -148 l3 -125 45 0 45 0 3 125 c4 164 2
170 -48 170 -33 0 -41 -4 -45 -22z m55 -128 c0 -73 -3 -100 -12 -100 -10 0
-13 27 -13 100 0 73 3 100 13 100 9 0 12 -27 12 -100z"/>
<path d="M262 713 l3 -148 43 -3 42 -3 0 150 c0 128 -2 151 -15 151 -13 0 -15
-21 -15 -125 0 -104 -2 -125 -15 -125 -13 0 -15 21 -15 125 0 105 -2 125 -15
125 -13 0 -15 -21 -13 -147z"/>
<path d="M375 711 c0 -134 2 -150 18 -155 15 -4 17 4 17 66 0 43 4 67 10 63 6
-3 10 -27 11 -53 0 -51 8 -76 25 -79 7 -1 10 49 10 150 l-1 152 -45 3 -45 3 0
-150z m65 59 c0 -29 -4 -40 -15 -40 -11 0 -15 11 -15 40 0 29 4 40 15 40 11 0
15 -11 15 -40z"/>
<path d="M546 852 c-3 -5 -6 -73 -7 -152 -1 -125 1 -144 15 -146 13 -2 16 7
16 47 0 37 4 49 15 49 11 0 15 -12 15 -48 0 -37 4 -49 15 -49 13 0 15 21 13
151 l-3 151 -37 3 c-20 2 -39 -1 -42 -6z m54 -97 c0 -42 -3 -55 -15 -55 -12 0
-15 13 -15 55 0 42 3 55 15 55 12 0 15 -13 15 -55z"/>
<path d="M650 723 c0 -76 4 -144 9 -151 5 -8 23 -12 47 -10 l39 3 3 148 c2
144 2 147 -19 147 -21 0 -21 -3 -18 -125 3 -95 1 -125 -8 -125 -10 0 -13 32
-13 125 0 118 -1 125 -20 125 -19 0 -20 -7 -20 -137z"/>
<path d="M760 835 c0 -18 5 -25 20 -25 19 0 20 -7 20 -128 0 -108 2 -129 15
-129 13 0 15 21 15 129 0 121 1 128 20 128 15 0 20 7 20 25 0 24 -3 25 -55 25
-52 0 -55 -1 -55 -25z"/>
<path d="M880 711 c0 -118 3 -150 14 -154 22 -9 24 0 19 62 -5 47 -3 59 11 64
14 5 16 -3 16 -58 0 -37 4 -65 10 -65 6 0 13 -1 16 -2 4 -2 7 66 8 150 1 139
-1 152 -16 152 -15 0 -18 -10 -18 -65 0 -53 -3 -65 -16 -65 -14 0 -16 10 -12
65 3 57 2 65 -14 65 -17 0 -18 -12 -18 -149z"/>
<path d="M1007 854 c-4 -4 -7 -72 -7 -151 l0 -143 45 0 46 0 -3 148 -3 147
-35 3 c-20 2 -39 0 -43 -4z m53 -144 c0 -82 -3 -100 -15 -100 -12 0 -15 18
-15 100 0 82 3 100 15 100 12 0 15 -18 15 -100z"/>
<path d="M1110 711 c0 -140 1 -149 20 -154 19 -5 20 0 20 66 0 86 17 80 22 -7
2 -43 7 -60 18 -61 13 -2 15 19 17 134 1 75 0 144 -3 154 -4 13 -16 17 -50 17
l-44 0 0 -149z m65 62 c-3 -52 -25 -55 -25 -4 0 28 4 41 13 41 10 0 13 -12 12
-37z"/>
<path d="M1230 706 c0 -141 1 -154 18 -152 9 2 16 6 15 9 -2 4 -3 72 -3 152 0
122 -2 145 -15 145 -13 0 -15 -24 -15 -154z"/>
<path d="M1280 835 c0 -18 5 -25 20 -25 19 0 20 -7 20 -131 0 -115 2 -130 16
-127 14 3 16 20 15 131 -2 122 -1 127 18 127 16 0 21 6 21 25 0 24 -3 25 -55
25 -52 0 -55 -1 -55 -25z"/>
<path d="M1421 773 c10 -49 18 -118 19 -155 0 -54 3 -68 15 -68 12 0 15 14 15
68 1 37 9 106 19 155 17 83 18 87 1 87 -13 0 -20 -12 -27 -47 l-9 -48 -8 48
c-5 36 -11 47 -25 47 -18 0 -18 -3 0 -87z"/>
<path d="M207 491 c12 -11 24 -38 28 -60 5 -29 16 -47 40 -65 18 -14 41 -43
52 -63 13 -27 27 -40 51 -47 20 -5 47 -25 65 -48 26 -33 36 -38 72 -38 32 0
47 -6 65 -25 22 -23 29 -25 76 -19 40 5 58 2 78 -11 25 -17 29 -17 65 0 28 12
50 15 81 10 34 -6 45 -3 63 13 28 26 69 42 93 36 23 -5 34 2 62 42 14 21 35
35 59 41 31 7 40 15 49 43 6 18 22 42 35 52 13 11 32 26 42 33 10 9 17 28 17
47 0 19 9 41 22 55 l21 23 -35 0 c-32 0 -39 -5 -64 -47 -15 -27 -35 -59 -46
-72 -15 -20 -16 -27 -6 -40 11 -14 11 -14 -3 -4 -13 11 -20 8 -45 -18 -16 -17
-44 -40 -62 -51 -22 -14 -30 -23 -22 -28 8 -5 7 -9 -5 -13 -9 -4 -13 -3 -10 3
9 14 4 13 -56 -14 -83 -37 -156 -49 -255 -44 -104 6 -184 31 -264 85 -60 41
-81 47 -92 23 -5 -11 -7 -9 -7 8 -1 15 -5 21 -13 16 -7 -4 -8 -3 -4 4 5 9 13
9 29 1 22 -12 22 -12 3 10 -13 15 -23 18 -30 11 -5 -5 -15 -10 -20 -10 -6 0
-3 5 7 11 23 13 22 18 -14 59 l-30 35 5 -28 c3 -16 1 -25 -5 -22 -5 4 -6 11
-3 17 5 7 2 9 -8 6 -8 -4 -20 2 -26 13 -8 12 -8 19 -2 19 5 0 10 -4 10 -10 0
-5 5 -10 11 -10 5 0 7 5 3 12 -5 7 -3 8 6 3 14 -9 13 -4 -12 47 -11 23 -19 28
-52 28 l-40 0 21 -19z m1067 -37 c4 -9 2 -13 -5 -8 -8 4 -9 -1 -4 -16 5 -17 4
-21 -6 -15 -9 6 -10 3 -5 -11 4 -10 4 -15 0 -11 -4 4 -12 2 -19 -3 -6 -5 -2
11 9 35 12 25 22 45 22 45 1 0 5 -7 8 -16z m-764 -232 c3 -3 -3 -2 -12 1 -10
4 -18 2 -18 -3 0 -6 10 -11 23 -11 l22 -2 -22 -4 c-22 -4 -55 21 -61 46 -2 10
53 -11 68 -27z"/>
<path d="M300 470 c48 -95 180 -206 290 -245 232 -82 490 9 625 219 20 32 34
60 31 63 -7 8 -6 9 -38 -47 -37 -64 -129 -152 -196 -188 -151 -80 -324 -82
-479 -7 -71 35 -167 126 -205 192 -35 61 -58 72 -28 13z"/>
<path d="M330 504 c0 -11 59 -91 91 -123 96 -94 208 -140 340 -141 172 0 311
71 407 209 l43 61 -440 0 c-243 0 -441 -3 -441 -6z m406 -35 c8 -13 58 -11 71
2 14 14 166 13 171 -1 2 -6 13 -10 23 -10 13 0 17 4 13 11 -5 8 12 10 59 7 39
-2 68 0 70 6 2 6 6 2 10 -7 5 -12 1 -17 -13 -17 -11 0 -18 -5 -15 -12 6 -18
-53 -81 -67 -72 -7 5 -8 3 -3 -6 6 -10 3 -12 -13 -8 -14 4 -19 2 -16 -7 8 -19
-11 -26 -31 -12 -15 12 -15 15 -3 28 13 12 13 17 1 27 -14 14 -18 37 -5 28 4
-2 14 -1 22 5 10 5 -9 7 -50 3 -36 -4 -70 -11 -76 -15 -6 -5 -14 -6 -18 -2 -4
4 -19 9 -34 11 -15 2 -29 7 -32 11 -8 12 -49 11 -74 -3 -26 -13 -108 -14 -163
-2 -40 9 -45 -9 -7 -18 22 -6 24 -9 12 -19 -8 -7 -20 -21 -28 -32 -14 -19 -14
-19 6 -2 20 16 21 16 19 -3 -1 -11 -4 -23 -8 -26 -4 -4 -1 -14 6 -23 10 -14
10 -14 -4 -4 -9 7 -20 9 -25 5 -4 -4 -2 2 6 12 14 18 14 19 -9 7 -13 -7 -21
-8 -17 -3 8 13 -34 43 -48 35 -6 -4 -4 2 4 12 9 11 10 16 3 11 -7 -4 -13 -2
-13 3 0 6 -6 11 -14 11 -8 0 -21 9 -29 20 -8 11 -17 17 -22 12 -5 -4 -5 -2 -1
5 3 6 2 14 -4 18 -26 16 -3 25 66 25 47 0 73 -4 69 -10 -3 -5 3 -10 14 -10 12
0 21 4 21 10 0 5 30 10 68 12 74 3 100 0 108 -13z m-35 -88 c6 9 9 -1 9 -31 0
-33 -3 -41 -10 -30 -6 10 -10 11 -10 3 0 -7 -9 -13 -20 -13 -11 0 -20 6 -20
13 0 8 -4 7 -10 -3 -7 -11 -10 -3 -10 28 0 36 3 43 18 40 12 -3 16 -12 15 -31
-1 -15 3 -27 8 -27 6 0 10 12 9 28 -3 36 1 51 7 28 4 -15 7 -16 14 -5z m107
-9 c2 -13 -3 -25 -12 -28 -9 -3 -14 -10 -11 -14 3 -5 1 -11 -5 -15 -6 -4 -10
11 -10 39 0 36 3 44 18 42 9 -2 18 -13 20 -24z m45 -17 l4 -30 2 33 c2 46 21
40 21 -7 0 -38 -1 -39 -32 -38 -30 2 -33 5 -30 32 6 65 26 71 35 10z m119 22
c-6 -7 -9 -25 -6 -40 3 -18 0 -27 -9 -27 -9 0 -12 9 -9 29 2 16 -1 32 -7 35
-7 5 -11 -5 -11 -28 0 -20 -4 -36 -10 -36 -5 0 -10 6 -10 13 0 8 -4 7 -10 -3
-7 -11 -10 -3 -10 30 0 33 3 41 10 30 6 -9 10 -10 10 -3 0 6 15 13 33 15 39 4
43 2 29 -15z m-352 3 c0 -5 -8 -11 -17 -11 -17 -1 -17 -2 0 -6 25 -7 23 -53
-3 -53 -11 0 -20 7 -20 15 0 9 6 12 18 9 16 -5 16 -5 0 6 -25 16 -23 50 2 50
11 0 20 -4 20 -10z m140 -30 c0 -33 -3 -40 -20 -40 -17 0 -20 7 -20 40 0 33 3
40 20 40 17 0 20 -7 20 -40z m57 -67 c1 -16 -8 -18 -72 -18 -41 0 -67 3 -57 7
9 4 36 7 60 7 26 1 41 5 37 11 -3 6 2 10 12 10 11 0 19 -8 20 -17z"/>
</g>
</svg>
